<?xml version="1.0" encoding="iso-8859-1"?>
<!-- Generator: Adobe Illustrator 19.0.0, SVG Export Plug-In . SVG Version: 6.00 Build 0)  -->
<svg version="1.1" id="Capa_1" xmlns="http://www.w3.org/2000/svg" xmlns:xlink="http://www.w3.org/1999/xlink" x="0px" y="0px"
	 viewBox="0 0 511.999 511.999" style="enable-background:new 0 0 511.999 511.999;" xml:space="preserve">
<g>
	<g>
		<path d="M499.953,305.292l-41.946-83.893C455.824,83.247,329.897-23.191,188.04,4.37C99.249,21.62,28.508,93.039,12.01,182.086
			c-11.614,62.687,2.33,125.035,39.264,175.562c30.151,41.247,46.756,90.736,46.758,139.351c0,8.284,6.716,15,15,15h210.002
			c8.284,0,15-6.716,15-15v-39.2c0-4.301,3.499-7.8,7.8-7.8h67.201c24.813,0,45-20.187,45-45v-45h8.108
			c13.196,0,25.217-6.702,32.154-17.927C505.236,330.844,505.855,317.096,499.953,305.292z M472.778,326.298
			c-0.688,1.112-2.71,3.699-6.635,3.699h-23.109c-8.284,0-15,6.716-15,15v60.001c0,8.271-6.729,15-15,15h-67.201
			c-20.843,0-37.8,16.957-37.8,37.8v24.2H127.571c-3.06-49.999-21.279-99.924-52.078-142.055
			c-32.009-43.79-44.079-97.911-33.984-152.392c14.271-77.032,75.458-138.811,152.253-153.732
			c123.122-23.921,234.273,68.82,234.273,191.177c0,2.329,0.542,4.625,1.584,6.708l43.501,87.003
			C474.875,322.22,473.465,325.186,472.778,326.298z"/>
	</g>
</g>
<g>
	<g>
		<path d="M293.033,269.997c-10.873,0-20.858,3.877-28.645,10.321l-51.556-30.933c3.332-7.458,5.2-15.706,5.2-24.388
			c0-8.682-1.868-16.93-5.2-24.388l51.556-30.933c7.788,6.444,17.772,10.321,28.645,10.321c24.813,0,45-20.187,45-45
			c0-24.813-20.187-45-45-45s-45,20.187-45,45c0,3.07,0.311,6.068,0.9,8.967l-54.991,32.994
			c-10.019-7.508-22.454-11.961-35.909-11.961c-33.084,0-60.001,26.916-60.001,60.001c0,33.084,26.916,60.001,60.001,60.001
			c13.455,0,25.89-4.453,35.909-11.961l54.991,32.994c-0.589,2.899-0.9,5.897-0.9,8.967c0,24.813,20.187,45,45,45s45-20.187,45-45
			S317.846,269.997,293.033,269.997z M293.033,119.995c8.271,0,15,6.729,15,15c0,8.271-6.729,15-15,15c-8.271,0-15-6.729-15-15
			C278.032,126.724,284.762,119.995,293.033,119.995z M158.031,254.996c-16.542,0-30-13.458-30-30s13.458-30,30-30
			c16.542,0,30,13.458,30,30S174.574,254.996,158.031,254.996z M293.033,329.998c-8.271,0-15-6.729-15-15c0-8.271,6.729-15,15-15
			c8.271,0,15,6.729,15,15C308.033,323.269,301.304,329.998,293.033,329.998z"/>
	</g>
</g>
<g>
</g>
<g>
</g>
<g>
</g>
<g>
</g>
<g>
</g>
<g>
</g>
<g>
</g>
<g>
</g>
<g>
</g>
<g>
</g>
<g>
</g>
<g>
</g>
<g>
</g>
<g>
</g>
<g>
</g>
</svg>
